<svg
  xmlns="http://www.w3.org/2000/svg"
  className="h-5 w-5"
  viewBox="0 0 20 20"
  fill="currentColor"
>
  <path
    fillRule="evenodd"
    d="M10 12C11.1046 12 12 12.8954 12 14C12 15.1046 11.1046 16 10 16C8.89543 16 8 15.1046 8 14C8 12.8954 8.89543 12 10 12ZM3.64645 2.64645C2.45118 3.84171 2 5.31003 2 7V10C2 14.4183 5.58172 18 10 18C14.4183 18 18 14.4183 18 10H16C16 13.3137 13.3137 16 10 16C6.68629 16 4 13.3137 4 10V7C4 5.31003 3.54882 3.84171 2.35355 2.64645C1.15829 1.45118 -0.353553 1 1.52786e-08 1H2C2 0.447715 2.44772 0 3 0C3.55228 0 4 0.447715 4 1C4 1.55228 3.55228 2 3 2H1.41421C1.47053 2.31493 1.5 2.63846 1.5 3C1.5 5.48528 3.51472 7.5 6 7.5C6.36154 7.5 6.68507 7.52947 7 7.58579V10.5858L3.70711 6.29289C3.31658 5.90237 3.31658 5.2692 3.70711 4.87868C4.09763 4.48815 4.7308 4.48815 5.12132 4.87868L8.12132 7.87868C8.51184 8.2692 8.51184 8.90237 8.12132 9.29289L5.12132 12.2929C4.7308 12.6834 4.09763 12.6834 3.70711 12.2929C3.31658 11.9024 3.31658 11.2692 3.70711 10.8787L7 7.58579V10.5858L4.70711 8.29289C4.31658 7.90237 4.31658 7.2692 4.70711 6.87868C5.09763 6.48815 5.7308 6.48815 6.12132 6.87868L9.12132 9.87868C9.51184 10.2692 9.51184 10.9024 9.12132 11.2929L6.12132 14.2929C5.7308 14.6834 5.09763 14.6834 4.70711 14.2929C4.31658 13.9024 4.31658 13.2692 4.70711 12.8787L8.29289 9.29289C8.68342 8.90237 9.31658 8.90237 9.70711 9.29289L13.2929 12.8787C13.6834 13.2692 13.6834 13.9024 13.2929 14.2929C12.9024 14.6834 12.2692 14.6834 11.8787 14.2929L9 11.4142V14C9 14.5523 8.55228 15 8 15C7.44772 15 7 14.5523 7 14V11C7 10.4477 7.44772 10 8 10C8.55228 10 9 10.4477 9 11V14.8284L11.7071 12.1213C12.0976 11.7308 12.7308 11.7308 13.1213 12.1213C13.5118 12.5118 13.5118 13.145 13.1213 13.5355L9.70711 17.5355C9.31658 17.9261 8.68342 17.9261 8.29289 17.5355L4.87868 14.1213C4.48815 13.7308 4.48815 13.0976 4.87868 12.7071C5.2692 12.3166 5.90237 12.3166 6.29289 12.7071L9 15.4142V13C9 12.4477 9.44772 12 10 12C10.5523 12 11 12.4477 11 13V15.1716L11.8787 14.2929C12.2692 13.9024 12.9024 13.9024 13.2929 14.2929C13.6834 14.6834 13.6834 15.3166 13.2929 15.7071L10.7071 18.2929C10.3166 18.6834 9.68342 18.6834 9.29289 18.2929L3.29289 12.2929C2.90237 11.9024 2.90237 11.2692 3.29289 10.8787C3.68342 10.4881 4.31658 10.4881 4.70711 10.8787L10.7071 16.8787C11.0976 17.2692 11.7308 17.2692 12.1213 16.8787L16.1213 12.8787C16.5118 12.4881 16.5118 11.8549 16.1213 11.4645C15.7308 11.074 15.0976 11.074 14.7071 11.4645L12 14.1716V11C12 10.4477 11.5523 10 11 10C10.4477 10 10 10.4477 10 11V14.1716L7.29289 11.4645C6.90237 11.074 6.2692 11.074 5.87868 11.4645C5.48815 11.8549 5.48815 12.4881 5.87868 12.8787L10.2929 17.2929C10.6834 17.6834 11.3166 17.6834 11.7071 17.2929L16.7071 12.2929C17.0976 11.9024 17.0976 11.2692 16.7071 10.8787C16.3166 10.4881 15.6834 10.4881 15.2929 10.8787L11.2929 14.8787C10.9024 15.2692 10.2692 15.2692 9.87868 14.8787L6.12132 11.1213C5.7308 10.7308 5.09763 10.7308 4.70711 11.1213L1.87868 13.9497C1.73223 14.0962 1.61738 14.2803 1.54336 14.4883C1.46934 14.6962 1.43722 14.9224 1.44999 15.1491C1.46277 15.3757 1.52036 15.596 1.61803 15.796L3 18H5H15H17L18.382 15.796C18.4796 15.596 18.5372 15.3757 18.55 15.1491C18.5628 14.9224 18.5307 14.6962 18.4566 14.4883C18.3826 14.2803 18.2678 14.0962 18.1213 13.9497L15.2929 11.1213C14.9024 10.7308 14.2692 10.7308 13.8787 11.1213L10.1213 14.8787C9.7308 15.2692 9.09763 15.2692 8.70711 14.8787L5.87868 12.0503C5.98868 11.8466 6.12914 11.6717 6.29289 11.5355L10 7.82843V10C10 10.5523 10.4477 11 11 11C11.5523 11 12 10.5523 12 10V7.82843L15.7071 11.5355C15.8709 11.6717 16.0114 11.8466 16.1213 12.0503L12.2929 15.8787C11.9024 16.2692 11.2692 16.2692 10.8787 15.8787L7.12132 12.1213C7.28003 11.9576 7.4745 11.8284 7.70711 11.7071L10.7071 8.70711C10.8946 8.51957 11.1443 8.41267 11.4142 8.41421C11.6841 8.41576 11.9338 8.52518 12.1213 8.70711L14.8284 11.4142C15.0186 11.6044 15.1174 11.8673 15.097 12.1365C15.0767 12.4056 14.9385 12.6521 14.7071 12.8284L11.7071 15.8284C11.5196 16.0159 11.2567 16.1147 10.9874 16.0943C10.7182 16.0739 10.4717 15.9357 10.2954 15.7043C10.1191 15.4729 10.0203 15.2091 10.0408 14.9393C10.0612 14.6696 10.1994 14.4231 10.4308 14.2468L13.1893 12H11C10.4477 12 10 11.5523 10 11C10 10.4477 10.4477 10 11 10H13C13.5523 10 14 10.4477 14 11C14 11.5523 13.5523 12 13 12H12.1992L13.6768 13.1646C13.9077 13.3411 14.0459 13.5876 14.0664 13.8574C14.0868 14.1271 13.9879 14.3909 13.8003 14.5786C13.6126 14.7662 13.3497 14.865 13.0809 14.8446C12.8121 14.8241 12.5656 14.686 12.3893 14.4546L10.4142 12.2929Z"
    clipRule="evenodd"
  />
</svg>